# xmcd
#
# Track frame offsets: 
#        150
#        16845
#        33965
#        50137
#        67117
#        87594
#        107361
#        123756
#        142380
#        163484
#        187646
#        205400
#
# Disc length: 2926 seconds
#
# Revision: 0
# Processed by: cddbd v1.5.2PL0 Copyright (c) Steve Scherf et al.
# Submitted via: ExactAudioCopy v1.3
#
DISCID=ab0b6c0c
DTITLE=Dennis Jones - Falling Up
DYEAR=2003
DGENRE=Texas Blues, Electric Blues
TTITLE0=Falling Up
TTITLE1=Yesterday Blues
TTITLE2=Chevrolet
TTITLE3=Big Black Cat
TTITLE4=You Don't Know A Thing About Love
TTITLE5=I Have You
TTITLE6=Deep Blues
TTITLE7=Stray Bullet
TTITLE8=The 'N Word
TTITLE9=Fresh Out Of Love
TTITLE10=Pray Your Life Away
TTITLE11=Crazy Over You
EXTD=
EXTT0=
EXTT1=
EXTT2=
EXTT3=
EXTT4=
EXTT5=
EXTT6=
EXTT7=
EXTT8=
EXTT9=
EXTT10=
EXTT11=
PLAYORDER=
